REM DIRINDEX 1\2,1\3,1\4,1\5
REM DIRNAME "folder01","folder02","folder03","folder04","folder05"
TITLE ""
FILE "P1Q_t_1478-1487.mp3" MP3
  TRACK 01 AUDIO
    TITLE "0:"
    INDEX 01 00:00:00
  TRACK 02 AUDIO
    TITLE "3:cjc173_5410"
    INDEX 01 00:00:10
  TRACK 03 AUDIO
    TITLE "0:"
    INDEX 01 00:01:25
  TRACK 04 AUDIO
    TITLE "4:cjc173_5411"
    INDEX 01 00:01:45
  TRACK 05 AUDIO
    TITLE "0:"
    INDEX 01 00:04:02
  TRACK 06 AUDIO
    TITLE "5:cjc173_5412"
    INDEX 01 00:04:22
  TRACK 07 AUDIO
    TITLE "0:"
    INDEX 01 00:08:73
  TRACK 08 AUDIO
    TITLE "3:cjc173_5413"
    INDEX 01 00:09:46
  TRACK 09 AUDIO
    TITLE "0:"
    INDEX 01 00:10:58
  TRACK 10 AUDIO
    TITLE "4:cjc173_5414"
    INDEX 01 00:11:04
  TRACK 11 AUDIO
    TITLE "0:"
    INDEX 01 00:14:03
  TRACK 12 AUDIO
    TITLE "5:cjc173_5415"
    INDEX 01 00:14:20
  TRACK 13 AUDIO
    TITLE "0:"
    INDEX 01 00:18:34
  TRACK 14 AUDIO
    TITLE "3:cjc173_5416"
    INDEX 01 00:19:06
  TRACK 15 AUDIO
    TITLE "0:"
    INDEX 01 00:20:07
  TRACK 16 AUDIO
    TITLE "4:cjc173_5417"
    INDEX 01 00:20:29
  TRACK 17 AUDIO
    TITLE "0:"
    INDEX 01 00:23:27
  TRACK 18 AUDIO
    TITLE "5:cjc173_5418"
    INDEX 01 00:23:47
  TRACK 19 AUDIO
    TITLE "0:"
    INDEX 01 00:28:07
  TRACK 20 AUDIO
    TITLE "3:cjc173_5419"
    INDEX 01 00:28:52
  TRACK 21 AUDIO
    TITLE "0:"
    INDEX 01 00:30:02
  TRACK 22 AUDIO
    TITLE "4:cjc173_5420"
    INDEX 01 00:30:21
  TRACK 23 AUDIO
    TITLE "0:"
    INDEX 01 00:31:40
  TRACK 24 AUDIO
    TITLE "5:cjc173_5421"
    INDEX 01 00:31:60
  TRACK 25 AUDIO
    TITLE "0:"
    INDEX 01 00:36:41
  TRACK 26 AUDIO
    TITLE "3:cjc173_5422"
    INDEX 01 00:37:11
  TRACK 27 AUDIO
    TITLE "0:"
    INDEX 01 00:38:30
  TRACK 28 AUDIO
    TITLE "4:cjc173_5423"
    INDEX 01 00:38:50
  TRACK 29 AUDIO
    TITLE "0:"
    INDEX 01 00:41:13
  TRACK 30 AUDIO
    TITLE "5:cjc173_5424"
    INDEX 01 00:41:35
  TRACK 31 AUDIO
    TITLE "0:"
    INDEX 01 00:47:55
  TRACK 32 AUDIO
    TITLE "3:cjc173_5425"
    INDEX 01 00:48:25
  TRACK 33 AUDIO
    TITLE "0:"
    INDEX 01 00:49:30
  TRACK 34 AUDIO
    TITLE "4:cjc173_5426"
    INDEX 01 00:49:50
  TRACK 35 AUDIO
    TITLE "0:"
    INDEX 01 00:57:12
  TRACK 36 AUDIO
    TITLE "5:cjc173_5427"
    INDEX 01 00:57:32
  TRACK 37 AUDIO
    TITLE "0:"
    INDEX 01 01:01:67
  TRACK 38 AUDIO
    TITLE "3:cjc173_5428"
    INDEX 01 01:02:37
  TRACK 39 AUDIO
    TITLE "0:"
    INDEX 01 01:03:46
  TRACK 40 AUDIO
    TITLE "4:cjc173_5429"
    INDEX 01 01:03:64
  TRACK 41 AUDIO
    TITLE "0:"
    INDEX 01 01:05:25
  TRACK 42 AUDIO
    TITLE "5:cjc173_5430"
    INDEX 01 01:05:43
  TRACK 43 AUDIO
    TITLE "0:"
    INDEX 01 01:09:41
  TRACK 44 AUDIO
    TITLE "3:cjc173_5431"
    INDEX 01 01:10:11
  TRACK 45 AUDIO
    TITLE "0:"
    INDEX 01 01:11:32
  TRACK 46 AUDIO
    TITLE "4:cjc173_5432"
    INDEX 01 01:11:53
  TRACK 47 AUDIO
    TITLE "0:"
    INDEX 01 01:14:48
  TRACK 48 AUDIO
    TITLE "5:cjc173_5433"
    INDEX 01 01:14:67
  TRACK 49 AUDIO
    TITLE "0:"
    INDEX 01 01:19:67
  TRACK 50 AUDIO
    TITLE "3:cjc173_5434"
    INDEX 01 01:20:37
  TRACK 51 AUDIO
    TITLE "0:"
    INDEX 01 01:21:54
  TRACK 52 AUDIO
    TITLE "4:cjc173_5435"
    INDEX 01 01:21:73
  TRACK 53 AUDIO
    TITLE "0:"
    INDEX 01 01:25:75
  TRACK 54 AUDIO
    TITLE "5:cjc173_5436"
    INDEX 01 01:26:22
  TRACK 55 AUDIO
    TITLE "0:"
    INDEX 01 01:31:13
  TRACK 56 AUDIO
    TITLE "3:cjc173_5437"
    INDEX 01 01:31:58
  TRACK 57 AUDIO
    TITLE "0:"
    INDEX 01 01:32:73
  TRACK 58 AUDIO
    TITLE "4:cjc173_5438"
    INDEX 01 01:33:20
  TRACK 59 AUDIO
    TITLE "0:"
    INDEX 01 01:35:52
  TRACK 60 AUDIO
    TITLE "5:cjc173_5439"
    INDEX 01 01:35:72
  TRACK 61 AUDIO
    TITLE "0:"
    INDEX 01 01:39:64
